<?xml version="1.0" encoding="utf-8"?>
<!-- Generator: Adobe Illustrator 16.0.0, SVG Export Plug-In . SVG Version: 6.00 Build 0)  -->
<!DOCTYPE svg PUBLIC "-//W3C//DTD SVG 1.1//EN" "http://www.w3.org/Graphics/SVG/1.1/DTD/svg11.dtd">
<svg version="1.1" id="Capa_1" xmlns="http://www.w3.org/2000/svg" xmlns:xlink="http://www.w3.org/1999/xlink" x="0px" y="0px"
	 width="612px" height="792px" viewBox="0 0 612 792" enable-background="new 0 0 612 792" xml:space="preserve">
<g>
	<g>
		<path fill="#3989C9" d="M380.431,90c40.979,0,61.464,27.95,61.464,59.909c0,39.915-35.582,76.836-81.953,76.836
			c-38.825,0-61.476-22.962-60.397-60.875C299.543,133.917,326.502,90,380.431,90z M254.243,702
			c-32.356,0-56.084-19.964-33.435-107.804l37.148-155.797c6.469-24.951,7.526-34.927,0-34.927c-9.72,0-51.722,17.233-76.563,34.21
			l-16.157-26.958C243.96,343.857,334.53,304.64,373.342,304.64c32.345,0,37.748,38.929,21.572,98.826l-42.527,163.771
			c-7.552,28.94-4.302,38.917,3.226,38.917c9.706,0,41.536-12.014,72.805-36.972l18.342,24.964
			C370.187,672.012,286.6,702,254.243,702z"/>
	</g>
</g>
</svg>
