<?xml version="1.0" encoding="utf-8"?>
<!-- Generator: Adobe Illustrator 16.0.0, SVG Export Plug-In . SVG Version: 6.00 Build 0)  -->
<!DOCTYPE svg PUBLIC "-//W3C//DTD SVG 1.1//EN" "http://www.w3.org/Graphics/SVG/1.1/DTD/svg11.dtd">
<svg version="1.1" id="Capa_1" xmlns="http://www.w3.org/2000/svg" xmlns:xlink="http://www.w3.org/1999/xlink" x="0px" y="0px"
	 width="24px" height="24px" viewBox="0 0 24 24" enable-background="new 0 0 24 24" xml:space="preserve">
<g>
	<g>
		<path fill="none" d="M12,10.446c-0.857,0-1.554,0.697-1.554,1.554c0,0.857,0.697,1.555,1.554,1.555
			c0.857,0,1.555-0.697,1.555-1.555C13.555,11.143,12.857,10.446,12,10.446z"/>
		<path fill="none" d="M6.968,7.058c-0.949,0.279-1.826,0.64-2.603,1.076C2.466,9.201,1.42,10.574,1.42,12s1.045,2.799,2.944,3.865
			c0.777,0.437,1.654,0.797,2.604,1.076C5.716,15.668,4.943,13.923,4.943,12S5.716,8.332,6.968,7.058z"/>
		<path fill="none" d="M19.635,8.134c-0.775-0.436-1.654-0.797-2.604-1.077c1.252,1.274,2.025,3.02,2.025,4.943
			s-0.773,3.668-2.025,4.941c0.949-0.279,1.826-0.642,2.604-1.076c1.899-1.066,2.945-2.439,2.945-3.865S21.534,9.201,19.635,8.134z"
			/>
		<path fill="#392726" d="M20.331,6.896c-2.167-1.217-5.011-1.904-8.036-1.946C12.197,4.946,12.099,4.943,12,4.943
			s-0.197,0.003-0.295,0.007C8.68,4.992,5.836,5.679,3.669,6.896C1.303,8.226,0,10.038,0,12s1.303,3.773,3.669,5.104
			c2.166,1.217,5.008,1.904,8.033,1.947c0.099,0.004,0.198,0.006,0.298,0.006s0.199-0.002,0.298-0.006
			c3.024-0.043,5.867-0.73,8.033-1.947C22.697,15.773,24,13.962,24,12S22.697,8.226,20.331,6.896z M4.365,15.865
			C2.466,14.799,1.42,13.426,1.42,12s1.045-2.799,2.944-3.865c0.777-0.437,1.654-0.798,2.604-1.077
			C5.716,8.332,4.943,10.077,4.943,12s0.773,3.668,2.025,4.941C6.019,16.662,5.142,16.302,4.365,15.865z M12.265,17.631
			c-0.088,0-0.176,0.001-0.265,0.001c-0.088,0-0.177-0.001-0.265-0.001C8.75,17.491,6.363,15.02,6.363,12
			c0-3.02,2.387-5.492,5.374-5.63C11.824,6.368,11.912,6.368,12,6.368s0.176,0.001,0.264,0.002c2.986,0.138,5.373,2.61,5.373,5.63
			C17.637,15.02,15.25,17.491,12.265,17.631z M19.635,15.865c-0.775,0.437-1.652,0.797-2.604,1.076
			c1.252-1.273,2.025-3.021,2.025-4.941s-0.773-3.668-2.025-4.943c0.949,0.28,1.826,0.641,2.604,1.077
			c1.899,1.067,2.945,2.44,2.945,3.866S21.534,14.799,19.635,15.865z"/>
		<path fill="#55BCE9" d="M12.264,6.37C12.176,6.369,12.088,6.368,12,6.368s-0.176,0.001-0.263,0.002
			C8.75,6.508,6.363,8.98,6.363,12c0,3.02,2.386,5.491,5.372,5.631c0.088,0,0.177,0.001,0.265,0.001s0.177-0.001,0.265-0.001
			c2.985-0.14,5.372-2.611,5.372-5.631C17.637,8.98,15.25,6.508,12.264,6.37z M12,14.975c-1.64,0-2.975-1.334-2.975-2.975
			c0-1.64,1.334-2.975,2.975-2.975c1.641,0,2.975,1.334,2.975,2.975C14.975,13.641,13.641,14.975,12,14.975z"/>
		<path fill="#392726" d="M12,9.025c-1.64,0-2.975,1.334-2.975,2.975c0,1.641,1.334,2.975,2.975,2.975
			c1.641,0,2.975-1.334,2.975-2.975C14.975,10.36,13.641,9.025,12,9.025z M12,13.555c-0.857,0-1.554-0.697-1.554-1.555
			c0-0.857,0.697-1.554,1.554-1.554c0.857,0,1.555,0.697,1.555,1.554C13.555,12.857,12.857,13.555,12,13.555z"/>
	</g>
</g>
</svg>
