<?xml version="1.0" encoding="utf-8"?>
<!-- Generator: Adobe Illustrator 16.0.0, SVG Export Plug-In . SVG Version: 6.00 Build 0)  -->
<!DOCTYPE svg PUBLIC "-//W3C//DTD SVG 1.1//EN" "http://www.w3.org/Graphics/SVG/1.1/DTD/svg11.dtd">
<svg version="1.1" id="Layer_1" xmlns="http://www.w3.org/2000/svg" xmlns:xlink="http://www.w3.org/1999/xlink" x="0px" y="0px"
	 width="512px" height="512px" viewBox="0 0 512 512" enable-background="new 0 0 512 512" xml:space="preserve">
<g>
	<path fill="#CC66A1" d="M469.327,392.537h-35.538c-6.832,0.012-13.387-2.703-18.202-7.547l-46.155-46.156
		c-3.234-3.348-3.188-8.667,0.104-11.96c3.289-3.293,8.613-3.34,11.961-0.104l46.155,46.14c1.621,1.637,3.832,2.559,6.137,2.559
		h35.538c4.716,0,8.535,3.82,8.535,8.535C477.864,388.713,474.043,392.537,469.327,392.537z"/>
	<path fill="#CC66A1" d="M76.804,477.868c-4.715,0-8.535-3.82-8.535-8.535v-69.972c-0.016-6.637,2.621-13.008,7.332-17.688
		l54.901-54.905c3.348-3.233,8.672-3.188,11.961,0.105c3.293,3.293,3.34,8.613,0.104,11.96L87.666,393.74
		c-1.496,1.488-2.336,3.512-2.332,5.621v69.972C85.334,474.048,81.515,477.868,76.804,477.868z"/>
	<path fill="#CC66A1" d="M426.664,477.868c-4.715,0-8.534-3.82-8.534-8.535V390.83c-0.009-2.109-0.845-4.129-2.328-5.625
		l-46.37-46.371c-3.234-3.348-3.188-8.667,0.104-11.96c3.289-3.293,8.613-3.34,11.961-0.104l46.37,46.369
		c4.677,4.703,7.31,11.059,7.328,17.691v78.503C435.197,474.048,431.376,477.868,426.664,477.868z"/>
	<path fill="#CC66A1" d="M349.079,179.63c-3.448-0.016-6.547-2.105-7.852-5.297c-1.309-3.191-0.566-6.855,1.879-9.285l66.491-66.19
		V42.675c0-4.714,3.82-8.535,8.531-8.535c4.715,0,8.534,3.82,8.534,8.535v59.73c-0.012,2.277-0.934,4.457-2.563,6.05l-69.05,68.694
		C353.467,178.728,351.319,179.618,349.079,179.63z"/>
	<path fill="#CC66A1" d="M469.327,230.403c-2.262,0-4.434-0.898-6.03-2.5l-85.33-85.331c-3.234-3.347-3.191-8.671,0.102-11.96
		c3.293-3.293,8.613-3.34,11.961-0.105l85.334,85.331c2.438,2.441,3.168,6.113,1.849,9.301
		C475.892,228.327,472.781,230.403,469.327,230.403z"/>
	<path fill="#CC66A1" d="M136.537,307.202H102.4c-4.711,0-8.53-3.82-8.53-8.53c0-4.715,3.819-8.535,8.53-8.535h34.138
		c4.711,0,8.53,3.82,8.53,8.535C145.069,303.382,141.248,307.202,136.537,307.202z"/>
	<path fill="#CC66A1" d="M409.599,307.202h-34.136c-4.711,0-8.531-3.82-8.531-8.53c0-4.715,3.82-8.535,8.531-8.535h34.136
		c4.711,0,8.531,3.82,8.531,8.535C418.13,303.382,414.31,307.202,409.599,307.202z"/>
	<path fill="#CC66A1" d="M435.197,187.739c-3.449,0-6.563-2.082-7.883-5.271c-1.32-3.188-0.59-6.859,1.852-9.297l34.133-34.132
		c3.348-3.234,8.672-3.188,11.961,0.102c3.293,3.292,3.34,8.613,0.104,11.964l-34.132,34.132
		C439.63,186.837,437.462,187.739,435.197,187.739z"/>
	<path fill="#CC66A1" d="M162.919,179.63c-2.238-0.012-4.387-0.902-5.974-2.48l-69.05-68.694c-1.629-1.594-2.551-3.773-2.563-6.05
		v-59.73c0-4.714,3.819-8.535,8.535-8.535c4.711,0,8.53,3.82,8.53,8.535v56.183l66.563,66.19c2.449,2.438,3.188,6.109,1.871,9.304
		c-1.32,3.195-4.435,5.277-7.888,5.277H162.919z"/>
	<path fill="#CC66A1" d="M42.671,230.403c-3.453,0-6.563-2.078-7.883-5.266c-1.32-3.188-0.59-6.859,1.848-9.301l85.335-85.331
		c3.348-3.234,8.668-3.188,11.961,0.105c3.289,3.289,3.336,8.613,0.103,11.96l-85.331,85.331
		C47.105,229.504,44.933,230.403,42.671,230.403z"/>
	<path fill="#CC66A1" d="M76.804,187.739c-2.266,0-4.434-0.902-6.035-2.5l-34.133-34.132c-3.234-3.352-3.188-8.672,0.105-11.964
		c3.288-3.289,8.612-3.336,11.961-0.102l34.132,34.132c2.44,2.438,3.172,6.109,1.852,9.297
		C83.366,185.658,80.253,187.739,76.804,187.739z"/>
	<path fill="#CC66A1" d="M69.73,401.068H42.671c-4.715,0-8.535-3.82-8.535-8.531c0-4.715,3.82-8.535,8.535-8.535H69.73
		c2.263-0.008,4.435-0.906,6.039-2.5l54.733-54.732c3.348-3.234,8.672-3.188,11.961,0.104c3.293,3.293,3.34,8.612,0.104,11.96
		l-54.733,54.734C83.022,398.354,76.519,401.049,69.73,401.068z"/>
</g>
<path fill="#8DC63F" d="M153.603,247.922h204.794c9.426,0,17.066,7.641,17.066,17.066v161.681c0,9.426-7.642,17.066-17.066,17.066
	H153.603c-9.425,0-17.064-7.642-17.064-17.066V264.988C136.537,255.563,144.178,247.922,153.603,247.922z"/>
<path fill="#B3C7A1" d="M375.463,264.965v161.704c-0.027,9.414-7.652,17.039-17.066,17.066H256V247.898h102.396
	C367.811,247.926,375.436,255.551,375.463,264.965z"/>
<path fill="#464F5D" d="M298.666,324.27c0.052-22.052-16.706-40.508-38.658-42.578c-21.953-2.069-41.867,12.931-45.941,34.602
	c-2.607,13.617,1.629,27.646,11.34,37.546c3.16,3.181,4.949,7.466,4.992,11.945v35.141c0.008,2.31,0.931,4.521,2.566,6.148
	s3.854,2.538,6.164,2.53h33.742c2.313,0,4.534-0.922,6.171-2.559s2.559-3.859,2.559-6.172v-35.082
	c0.012-4.473,1.785-8.766,4.93-11.945C294.3,345.959,298.656,335.339,298.666,324.27z"/>
<path fill="#3D324C" d="M426.664,512c-10.358,0-19.694-6.238-23.655-15.805c-3.961-9.57-1.771-20.581,5.555-27.901
	c10.133-9.668,26.074-9.668,36.207,0c9.996,9.996,9.996,26.198,0,36.198C439.982,509.313,433.462,512.016,426.664,512z"/>
<path fill="#3D324C" d="M486.395,409.604c-10.355,0-19.691-6.237-23.652-15.809c-3.965-9.566-1.77-20.582,5.556-27.902
	c10.133-9.668,26.073-9.668,36.207,0c9.991,10,9.991,26.203,0,36.199C499.715,406.916,493.192,409.619,486.395,409.604z"/>
<path fill="#3D324C" d="M417.56,51.206c-14.141,0-25.601-11.461-25.601-25.597c0-14.141,11.46-25.601,25.601-25.601
	c14.137,0,25.598,11.46,25.598,25.601c0,6.789-2.694,13.3-7.496,18.101C430.861,48.511,424.349,51.206,417.56,51.206z"/>
<path fill="#3D324C" d="M486.395,264.539c-10.355,0-19.691-6.238-23.652-15.809c-3.965-9.566-1.77-20.582,5.556-27.902
	c10.133-9.656,26.065-9.656,36.198,0c7.324,7.32,9.517,18.335,5.556,27.902C506.09,258.301,496.754,264.539,486.395,264.539z"/>
<path fill="#3D324C" d="M486.395,153.607c-10.355,0-19.691-6.238-23.652-15.808c-3.965-9.566-1.77-20.582,5.556-27.902
	c10.133-9.656,26.065-9.656,36.198,0c7.324,7.32,9.517,18.336,5.556,27.902C506.09,147.369,496.754,153.607,486.395,153.607z"/>
<path fill="#3D324C" d="M85.334,324.27c-10.352,0.004-19.688-6.234-23.651-15.802c-3.965-9.562-1.772-20.573,5.547-27.896
	c10.133-9.669,26.073-9.669,36.206,0c7.316,7.323,9.508,18.331,5.547,27.894C105.022,318.029,95.69,324.27,85.334,324.27z"/>
<path fill="#3D324C" d="M76.804,512c-6.793,0.02-13.309-2.68-18.102-7.492c-4.802-4.801-7.5-11.313-7.5-18.104
	c0-6.788,2.698-13.301,7.5-18.102c10.133-9.668,26.072-9.668,36.206,0c7.319,7.324,9.512,18.331,5.547,27.897
	C96.49,505.765,87.155,512,76.804,512z"/>
<path fill="#3D324C" d="M25.605,418.135c-6.793,0.02-13.308-2.68-18.101-7.492c-4.801-4.801-7.5-11.313-7.5-18.102
	c0-6.793,2.699-13.305,7.5-18.105c10.132-9.668,26.073-9.668,36.206,0c7.319,7.324,9.508,18.336,5.547,27.898
	C45.292,411.9,35.956,418.135,25.605,418.135z"/>
<path fill="#3D324C" d="M426.664,324.27c-10.358,0.004-19.694-6.238-23.655-15.806c-3.961-9.569-1.771-20.581,5.555-27.901
	c10.133-9.66,26.066-9.66,36.199,0c7.324,7.32,9.52,18.332,5.555,27.901C446.357,318.029,437.021,324.271,426.664,324.27z"/>
<path fill="#3D324C" d="M94.44,51.206c-14.136,0-25.597-11.461-25.597-25.597c0-14.141,11.461-25.601,25.597-25.601
	c14.142,0,25.603,11.46,25.603,25.601c0,6.789-2.699,13.3-7.5,18.101S101.229,51.206,94.44,51.206z"/>
<path fill="#3D324C" d="M25.605,264.539c-10.354,0-19.689-6.238-23.654-15.801c-3.962-9.566-1.773-20.578,5.547-27.898
	c10.132-9.672,26.072-9.672,36.206,0c7.319,7.32,9.508,18.328,5.547,27.894C45.288,258.297,35.956,264.535,25.605,264.539z"/>
<path fill="#3D324C" d="M25.605,153.607c-10.354,0-19.689-6.238-23.654-15.8c-3.962-9.566-1.773-20.578,5.547-27.898
	c10.132-9.671,26.072-9.671,36.206,0c7.319,7.32,9.508,18.328,5.547,27.895C45.288,147.365,35.956,153.603,25.605,153.607z"/>
<g>
	<path fill="#BDC3C7" d="M256,93.764c-51.401,0-93.339,41.148-94.319,92.542v7h34.133v-7c1.095-32.453,27.719-58.194,60.188-58.194
		c32.468,0,59.093,25.742,60.183,58.194v61.616h34.136v-61.616C349.338,134.912,307.402,93.764,256,93.764z"/>
</g>
</svg>
